<svg version="1.1" xmlns="http://www.w3.org/2000/svg" xmlns:xlink="http://www.w3.org/1999/xlink" width="46.01614" height="44.46089" viewBox="0,0,46.01614,44.46089"><g transform="translate(-123.49193,-298.51956)"><g data-paper-data="{&quot;isPaintingLayer&quot;:true}" fill-rule="nonzero" stroke-width="0" stroke-linejoin="miter" stroke-miterlimit="10" stroke-dasharray="" stroke-dashoffset="0" style="mix-blend-mode: normal"><path d="M123.49193,342.98045v-44.46089h46.01614v44.46089zM145.64747,331.39712c2.28829,0 4.14331,-0.73725 4.14331,-1.64669c0,-0.90946 -1.85503,-1.64669 -4.14331,-1.64669c-2.28829,0 -4.14331,0.73725 -4.14331,1.64669c0,0.90946 1.85503,1.64669 4.14331,1.64669zM147.63001,333.07071h-0.49563c-1.8492,0.00231 -3.70536,-0.06012 -5.52847,-0.1832c0,0 -2.51505,-0.1666 -2.93422,0.83297c-0.41917,0.99956 2.09586,1.16616 2.09586,1.16616c2.10158,0.13689 4.23721,0.20846 6.36682,0.21077h0.49563c0,0 2.54973,0 2.54973,-1.01336c0,-1.01336 -2.54973,-1.01336 -2.54973,-1.01336z" fill-opacity="0.00392" fill="#00ffff" stroke="none" stroke-linecap="butt"/><path d="M158.09719,321.54041l-24.18279,9.72269l1.37317,-7.58012c0,0 16.29213,-1.9344 16.23813,-2.01314c-0.31422,-0.45824 -16.39232,-2.26741 -16.39232,-2.26741l-1.01572,-8.85457z" fill="#00b3ff" stroke="#000000" stroke-linecap="round"/></g></g></svg>