<svg version="1.1" xmlns="http://www.w3.org/2000/svg" xmlns:xlink="http://www.w3.org/1999/xlink" width="46.01614" height="54.15595" viewBox="0,0,46.01614,54.15595"><g transform="translate(-123.49193,-287.37575)"><g data-paper-data="{&quot;isPaintingLayer&quot;:true}" fill-rule="nonzero" stroke-linejoin="miter" stroke-miterlimit="10" stroke-dasharray="" stroke-dashoffset="0" style="mix-blend-mode: normal"><path d="M123.49193,340.44498v-44.46089h46.01614v44.46089zM145.64747,328.86165c2.28829,0 4.14331,-0.73725 4.14331,-1.64669c0,-0.90946 -1.85503,-1.64669 -4.14331,-1.64669c-2.28829,0 -4.14331,0.73725 -4.14331,1.64669c0,0.90946 1.85503,1.64669 4.14331,1.64669zM147.63001,330.53524h-0.49563c-1.8492,0.00231 -3.70536,-0.06012 -5.52847,-0.1832c0,0 -2.51505,-0.1666 -2.93422,0.83297c-0.41917,0.99956 2.09586,1.16616 2.09586,1.16616c2.10158,0.13689 4.23721,0.20846 6.36682,0.21077h0.49563c0,0 2.54973,0 2.54973,-1.01336c0,-1.01336 -2.54973,-1.01336 -2.54973,-1.01336z" fill-opacity="0.00392" fill="#00ffff" stroke="none" stroke-width="0" stroke-linecap="butt"/><path d="M159.74068,315.68953c0,5.91167 -6.33828,10.70403 -14.15694,10.70403c-7.81866,0 -14.15694,-4.79235 -14.15694,-10.70403c0,-5.91167 6.33828,-10.70403 14.15694,-10.70403c7.81866,0 14.15694,4.79235 14.15694,10.70403z" fill="#ffc600" stroke="none" stroke-width="0" stroke-linecap="butt"/><path d="M155.59719,320.17831l0.69058,11.04932l-5.52466,-6.21524z" fill="#ffc600" stroke="#000000" stroke-width="0" stroke-linecap="round"/><text transform="translate(134.87972,317.41598) scale(0.69058,0.69058)" font-size="40" xml:space="preserve" fill="#000000" fill-rule="nonzero" stroke="none" stroke-width="1" stroke-linecap="butt" stroke-linejoin="miter" stroke-miterlimit="10" stroke-dasharray="" stroke-dashoffset="0" font-family="Sans Serif" font-weight="normal" text-anchor="start" style="mix-blend-mode: normal"><tspan x="0" dy="0">...</tspan></text><text transform="translate(139.52268,339.78382) scale(0.13983,0.13983)" font-size="40" xml:space="preserve" fill="#ffc600" fill-rule="nonzero" stroke="none" stroke-width="1" stroke-linecap="butt" stroke-linejoin="miter" stroke-miterlimit="10" stroke-dasharray="" stroke-dashoffset="0" font-family="Sans Serif" font-weight="normal" text-anchor="start" style="mix-blend-mode: normal"><tspan x="0" dy="0">Chat</tspan></text></g></g></svg>