<svg version="1.1" xmlns="http://www.w3.org/2000/svg" xmlns:xlink="http://www.w3.org/1999/xlink" width="40.48729" height="43.39208" viewBox="0,0,40.48729,43.39208"><g transform="translate(-233.88889,-572.67919)"><g data-paper-data="{&quot;isPaintingLayer&quot;:true}" fill-rule="nonzero" stroke="none" stroke-linecap="butt" stroke-linejoin="miter" stroke-miterlimit="10" stroke-dasharray="" stroke-dashoffset="0" style="mix-blend-mode: normal"><path d="M233.88889,612.78852v-40.10933h40.48729v40.10933z" fill-opacity="0.00784" fill="#ffffff" stroke-width="0"/><path d="M248.67223,587.98769c0,-2.74087 2.22193,-4.9628 4.9628,-4.9628c2.74087,0 4.9628,2.22193 4.9628,4.9628c0,2.74087 -2.22193,4.9628 -4.9628,4.9628c-2.74087,0 -4.9628,-2.22193 -4.9628,-4.9628z" fill="#ffffff" stroke-width="0"/><path d="M253.63503,604.76665c-6.13434,0 -11.1072,-2.22193 -11.1072,-4.9628c0,-2.74087 4.97286,-4.9628 11.1072,-4.9628c6.13434,0 11.1072,2.22193 11.1072,4.9628c0,2.74087 -4.97286,4.9628 -11.1072,4.9628z" fill="#ffffff" stroke-width="0"/><text transform="translate(243.34685,614.53818) scale(0.12265,0.12265)" font-size="40" xml:space="preserve" fill="#ffffff" fill-rule="nonzero" stroke="none" stroke-width="1" stroke-linecap="butt" stroke-linejoin="miter" stroke-miterlimit="10" stroke-dasharray="" stroke-dashoffset="0" font-family="Sans Serif" font-weight="normal" text-anchor="start" style="mix-blend-mode: normal"><tspan x="0" dy="0">Personal</tspan></text></g></g></svg>