<svg version="1.1" xmlns="http://www.w3.org/2000/svg" xmlns:xlink="http://www.w3.org/1999/xlink" width="37.53754" height="39.78939" viewBox="0,0,37.53754,39.78939"><g transform="translate(-108.93168,-498.75103)"><g data-paper-data="{&quot;isPaintingLayer&quot;:true}" fill-rule="nonzero" stroke-linejoin="miter" stroke-miterlimit="10" stroke-dasharray="" stroke-dashoffset="0" style="mix-blend-mode: normal"><path d="M108.93168,519.77165c0,-10.3657 8.40306,-18.76877 18.76877,-18.76877c10.3657,0 18.76877,8.40306 18.76877,18.76877c0,10.3657 -8.40306,18.76877 -18.76877,18.76877c-10.3657,0 -18.76877,-8.40306 -18.76877,-18.76877z" fill="#5fdd85" stroke="none" stroke-width="0" stroke-linecap="butt"/><path d="M137.45964,519.25103c0,4.28021 -4.58908,7.75 -10.25,7.75c-5.66092,0 -10.25,-3.46979 -10.25,-7.75c0,-4.28021 4.58908,-7.75 10.25,-7.75c5.66092,0 10.25,3.46979 10.25,7.75z" fill="#ffffff" stroke="none" stroke-width="0" stroke-linecap="butt"/><path d="M134.45964,522.50103l0.5,8l-4,-4.5z" fill="#ffffff" stroke="#000000" stroke-width="0" stroke-linecap="round"/><text transform="translate(119.45964,520.50103) scale(0.5,0.5)" font-size="40" xml:space="preserve" fill="#5fdd85" fill-rule="nonzero" stroke="none" stroke-width="1" stroke-linecap="butt" stroke-linejoin="miter" stroke-miterlimit="10" stroke-dasharray="" stroke-dashoffset="0" font-family="Sans Serif" font-weight="normal" text-anchor="start" style="mix-blend-mode: normal"><tspan x="0" dy="0">...</tspan></text></g></g></svg>