<svg version="1.1" xmlns="http://www.w3.org/2000/svg" xmlns:xlink="http://www.w3.org/1999/xlink" width="52.59487" height="64.4145" viewBox="0,0,52.59487,64.4145"><g transform="translate(-120.20256,-284.29275)"><g data-paper-data="{&quot;isPaintingLayer&quot;:true}" fill-rule="nonzero" stroke="none" stroke-linecap="butt" stroke-linejoin="miter" stroke-miterlimit="10" stroke-dasharray="" stroke-dashoffset="0" style="mix-blend-mode: normal"><path d="M120.20256,348.70725v-64.4145h52.59487v64.4145zM145.52558,331.92544c2.61543,0 4.73567,-1.06812 4.73567,-2.38573c0,-1.31759 -2.12024,-2.38573 -4.73567,-2.38573c-2.61543,0 -4.73567,1.06812 -4.73567,2.38573c0,1.31759 2.12024,2.38573 4.73567,2.38573zM147.79153,334.3501h-0.56649c-2.11358,0.00335 -4.2351,-0.08711 -6.31885,-0.26542c0,0 -2.87461,-0.24136 -3.35371,1.20679c-0.4791,1.44817 2.3955,1.68953 2.3955,1.68953c2.40203,0.19833 4.84299,0.30202 7.27706,0.30537h0.56649c0,0 2.91426,0 2.91426,-1.46813c0,-1.46813 -2.91426,-1.46813 -2.91426,-1.46813z" fill-opacity="0.00392" fill="#00ffff" stroke-width="0"/><path d="M145.52558,300.43288c8.76029,0 15.86189,6.85465 15.86189,15.3103c0,8.45564 -7.10161,15.3103 -15.86189,15.3103c-8.76029,0 -15.86189,-6.85465 -15.86189,-15.3103c0,-8.45564 7.10161,-15.3103 15.86189,-15.3103zM145.52558,315.39529c2.61543,0 4.73567,-2.12022 4.73567,-4.73567c0,-2.61544 -2.12024,-4.73567 -4.73567,-4.73567c-2.61543,0 -4.73567,2.12022 -4.73567,4.73567c0,2.61544 2.12024,4.73567 4.73567,4.73567zM147.79153,320.20828h-0.56649c-2.11358,0.00664 -4.2351,-0.1729 -6.31885,-0.52684c0,0 -2.87461,-0.4791 -3.35371,2.3955c-0.4791,2.87461 2.3955,3.35371 2.3955,3.35371c2.40203,0.39369 4.84299,0.59951 7.27706,0.60615h0.56649c0,0 2.91426,0 2.91426,-2.91426c0,-2.91426 -2.91426,-2.91426 -2.91426,-2.91426z" fill="#ffc600" stroke-width="0"/><text transform="translate(134.76046,339.78382) scale(0.13984,0.13984)" font-size="40" xml:space="preserve" fill="#ffc600" fill-rule="nonzero" stroke="none" stroke-width="1" stroke-linecap="butt" stroke-linejoin="miter" stroke-miterlimit="10" stroke-dasharray="" stroke-dashoffset="0" font-family="Sans Serif" font-weight="normal" text-anchor="start" style="mix-blend-mode: normal"><tspan x="0" dy="0">Options</tspan></text></g></g></svg>