<svg version="1.1" xmlns="http://www.w3.org/2000/svg" xmlns:xlink="http://www.w3.org/1999/xlink" width="174.4745" height="174.4745" viewBox="0,0,174.4745,174.4745"><g transform="translate(-59.26275,-229.26275)"><g data-paper-data="{&quot;isPaintingLayer&quot;:true}" fill-rule="nonzero" stroke="none" stroke-width="0" stroke-linecap="butt" stroke-linejoin="miter" stroke-miterlimit="10" stroke-dasharray="" stroke-dashoffset="0" style="mix-blend-mode: normal"><path d="M59.26275,316.5c0,-48.1798 39.05744,-87.23725 87.23725,-87.23725c48.1798,0 87.23725,39.05744 87.23725,87.23725c0,48.1798 -39.05744,87.23725 -87.23725,87.23725c-48.1798,0 -87.23725,-39.05744 -87.23725,-87.23725z" fill="#00ff72"/><path d="M112.32353,297.13332c0,-18.56055 15.04629,-33.60684 33.60684,-33.60684c18.56055,0 33.60684,15.04629 33.60684,33.60684c0,18.56055 -15.04629,33.60684 -33.60684,33.60684c-18.56055,0 -33.60684,-15.04629 -33.60684,-33.60684z" fill="#ff0000"/><path d="M210.29604,364.91666c0,11.76368 -33.86593,31.89801 -41.58138,31.89801c-0.21439,0 -9.2209,2.76169 -21.18398,2.39436c-3.94394,-0.12108 -21.40939,-3.62848 -21.50636,-3.65302c-18.5371,-4.69018 -42.18117,-21.1461 -42.18117,-30.63937c0,-15.10013 28.30743,-27.34118 63.22646,-27.34118c34.91903,0 63.22646,12.24105 63.22646,27.34118z" fill="#ff0000"/></g></g></svg>