<svg version="1.1" xmlns="http://www.w3.org/2000/svg" xmlns:xlink="http://www.w3.org/1999/xlink" width="43.63504" height="46.88826" viewBox="0,0,43.63504,46.88826"><g transform="translate(-124.68248,-294.64349)"><g data-paper-data="{&quot;isPaintingLayer&quot;:true}" fill-rule="nonzero" stroke-linecap="butt" stroke-linejoin="miter" stroke-miterlimit="10" stroke-dasharray="" stroke-dashoffset="0" style="mix-blend-mode: normal"><path d="M124.68248,338.35651v-43.71302h43.63504v43.71302zM145.69158,326.96801c2.16988,0 3.92892,-0.72486 3.92892,-1.61901c0,-0.89415 -1.75904,-1.61901 -3.92892,-1.61901c-2.16988,0 -3.92892,0.72486 -3.92892,1.61901c0,0.89415 1.75904,1.61901 3.92892,1.61901zM147.57153,328.61345h-0.46998c-1.75352,0.00227 -3.51363,-0.05912 -5.2424,-0.18011c0,0 -2.3849,-0.16379 -2.78239,0.81896c-0.39749,0.98275 1.98742,1.14654 1.98742,1.14654c1.99283,0.13459 4.01796,0.20496 6.03737,0.20723h0.46998c0,0 2.4178,0 2.4178,-0.9963c0,-0.9963 -2.4178,-0.99631 -2.4178,-0.99631z" fill-opacity="0.00392" fill="#00ffff" stroke="none" stroke-width="0"/><path d="M149.11509,310.34178c0,4.60168 -3.94123,8.33207 -8.80298,8.33207c-4.86175,0 -8.80297,-3.73039 -8.80297,-8.33207c0,-4.60168 3.94121,-8.33208 8.80297,-8.33208c4.86175,0 8.80298,3.7304 8.80298,8.33208z" fill="#ffc600" stroke="#000000" stroke-width="0"/><path d="M135.85107,328.43934v-8.03181h7.98983v8.03181z" fill="#ffc600" stroke="none" stroke-width="0"/><path d="M151.56605,329.07398v-5.65071h5.62117v5.65071z" fill="#ffc600" stroke="none" stroke-width="0"/><path d="M159.671,316.92594c0,2.6309 -2.2533,4.76366 -5.03289,4.76366c-2.77959,0 -5.03289,-2.13276 -5.03289,-4.76366c0,-2.6309 2.2533,-4.76366 5.03289,-4.76366c2.77959,0 5.03289,2.13276 5.03289,4.76366z" fill="#ffc600" stroke="#000000" stroke-width="0"/><text transform="translate(136.34787,339.78382) scale(0.13983,0.13983)" font-size="40" xml:space="preserve" fill="#ffc600" fill-rule="nonzero" stroke="none" stroke-width="1" stroke-linecap="butt" stroke-linejoin="miter" stroke-miterlimit="10" stroke-dasharray="" stroke-dashoffset="0" font-family="Sans Serif" font-weight="normal" text-anchor="start" style="mix-blend-mode: normal"><tspan x="0" dy="0">Friends</tspan></text></g></g></svg>